<svg id="Layer_1" data-name="Layer 1" xmlns="http://www.w3.org/2000/svg" viewBox="0 0 357.17 130.39"><defs><style>.cls-1{fill:none;}</style></defs><rect class="cls-1" width="357.17" height="130.39"/><path d="M335.91,130a21.76,21.76,0,0,1-11.23-3,22.51,22.51,0,0,1-8.15-8.18,22.52,22.52,0,0,1,0-22.53,22.85,22.85,0,0,1,8.15-8.22,21.6,21.6,0,0,1,11.23-3A20.73,20.73,0,0,1,348,88.69a23.07,23.07,0,0,1,8,9.73l-8.06,2.33a14.63,14.63,0,0,0-4.84-5.57,12.39,12.39,0,0,0-7.18-2.11,13.55,13.55,0,0,0-12.14,7.17,15,15,0,0,0-1.83,7.3,14.73,14.73,0,0,0,1.83,7.27,13.71,13.71,0,0,0,5,5.22,13.54,13.54,0,0,0,7.14,1.92,12.86,12.86,0,0,0,7.12-2,13.19,13.19,0,0,0,4.72-5.47l8.18,2.2a22.17,22.17,0,0,1-8,9.66A21,21,0,0,1,335.91,130Z"/><path d="M158.35,16.56l4.57,5.52V60.59h-4.57v-44ZM200.69.39V50.18L160.18.39h-1.83V6.15l45.09,54.44h1.81V.39Z"/><path d="M120.87.38V37.76c0,25.91-37.13,26-37.13,0V.38H79.16V37.76c0,31.69,46.29,31.61,46.29,0V.38Z"/><path d="M238.16,4.86V.39h42.55V4.86Zm0,27.86h42.55V28.25H238.16v4.47Zm0,27.87h42.55V56.12H238.16v4.47Z"/><path d="M6.62.38,29.29,35.6v25H24.63V36.47L1.17.47V.38Zm40.77,0L31.16,25.54l2.63,4.08L52.84.47V.38Z"/><path d="M350.54.39H356V.47L313.62,60.59h-5.45V60.5l21.15-30L308.17.47V.39h5.45l18.46,26.18L350.54.39ZM339.12,36.57l-2.75,3.91,14.17,20.11H356V60.5L339.12,36.57Z"/><polygon points="20.8 93.38 6.96 93.38 6.96 85.52 42.58 85.52 42.58 93.38 29.23 93.38 29.23 129.57 20.8 129.57 20.8 93.38 20.8 93.38"/><path d="M62.53,85.52H82.36a15,15,0,0,1,7.74,2A15.23,15.23,0,0,1,95.58,93a14.35,14.35,0,0,1,2,7.39A13.62,13.62,0,0,1,96.43,106a14.38,14.38,0,0,1-3.25,4.59,13,13,0,0,1-4.78,2.93l9.82,16H88.59l-9.13-15H71v15h-8.5v-44Zm19.7,21.71a7,7,0,0,0,5.1-2,6.7,6.7,0,0,0,2.08-5,6.82,6.82,0,0,0-7-7.05H71v14.1Z"/><path d="M132,85.52H145.1l15,44.05h-8.75l-3.08-9.19H128.67l-3.21,9.19h-8.81l15.36-44Zm13.78,27.18-7.23-21.77-7.43,21.77Z"/><polygon points="179.51 85.52 211.67 85.52 211.67 93.38 188 93.38 188 105.3 211.67 105.3 211.67 112.91 188 112.91 188 129.57 179.51 129.57 179.51 85.52 179.51 85.52"/><polygon points="231.7 85.52 263.86 85.52 263.86 93.38 240.19 93.38 240.19 105.3 263.86 105.3 263.86 112.91 240.19 112.91 240.19 129.57 231.7 129.57 231.7 85.52 231.7 85.52"/><polygon points="284.44 85.52 292.93 85.52 292.93 129.57 284.44 129.57 284.44 85.52 284.44 85.52"/></svg>